<svg xmlns="http://www.w3.org/2000/svg" xmlns:xlink="http://www.w3.org/1999/xlink" width="500" zoomAndPan="magnify" viewBox="0 0 375 374.999991" height="500" preserveAspectRatio="xMidYMid meet" version="1.0"><defs><clipPath id="01122e5ac3"><path d="M 52 74 L 109 74 L 109 302.742188 L 52 302.742188 Z M 52 74 " clip-rule="nonzero"/></clipPath></defs><g clip-path="url(#01122e5ac3)"><path fill="#1284a3" d="M 99.785156 302.375 C 99.730469 302.375 99.675781 302.375 99.621094 302.371094 C 92.152344 302.234375 84.328125 300.84375 77.722656 291.707031 C 72.332031 284.253906 71.058594 275.453125 70.550781 268.613281 C 69.773438 258.148438 70.417969 247.785156 71.039062 237.765625 C 71.554688 229.46875 72.042969 221.632812 71.785156 213.773438 C 71.628906 209.019531 71.164062 203.609375 68.875 199.5625 C 67.101562 196.429688 63.855469 194.238281 61.195312 194.375 C 60.636719 194.402344 60.082031 194.375 59.53125 194.292969 C 58.976562 194.214844 58.4375 194.082031 57.914062 193.894531 C 57.386719 193.710938 56.882812 193.476562 56.402344 193.191406 C 55.921875 192.910156 55.46875 192.582031 55.054688 192.210938 C 54.636719 191.84375 54.257812 191.433594 53.917969 190.992188 C 53.578125 190.546875 53.285156 190.078125 53.039062 189.578125 C 52.792969 189.074219 52.59375 188.558594 52.445312 188.019531 C 52.300781 187.480469 52.207031 186.933594 52.167969 186.375 C 52.125 185.820312 52.136719 185.261719 52.207031 184.710938 C 52.273438 184.15625 52.390625 183.613281 52.5625 183.082031 C 52.734375 182.550781 52.957031 182.042969 53.226562 181.554688 C 53.5 181.066406 53.8125 180.609375 54.171875 180.179688 C 54.535156 179.753906 54.929688 179.367188 55.363281 179.015625 C 55.800781 178.664062 56.265625 178.359375 56.757812 178.101562 C 57.253906 177.839844 57.765625 177.628906 58.300781 177.46875 C 58.835938 177.308594 59.378906 177.203125 59.9375 177.148438 C 64.511719 176.695312 68.320312 172.40625 70.0625 168.355469 C 72.46875 162.753906 72.707031 155.820312 72.9375 149.117188 L 74.519531 102.828125 C 74.6875 98.003906 74.910156 91.398438 78.269531 85.417969 C 82.1875 78.4375 90.988281 72.859375 100.222656 75.699219 C 100.761719 75.863281 101.28125 76.082031 101.777344 76.347656 C 102.273438 76.617188 102.738281 76.929688 103.175781 77.285156 C 103.609375 77.644531 104.007812 78.042969 104.363281 78.480469 C 104.722656 78.917969 105.035156 79.382812 105.300781 79.878906 C 105.566406 80.378906 105.78125 80.898438 105.945312 81.4375 C 106.109375 81.976562 106.222656 82.527344 106.277344 83.089844 C 106.335938 83.648438 106.335938 84.210938 106.28125 84.773438 C 106.230469 85.335938 106.121094 85.886719 105.960938 86.425781 C 105.800781 86.96875 105.585938 87.488281 105.324219 87.984375 C 105.0625 88.484375 104.75 88.953125 104.398438 89.390625 C 104.042969 89.832031 103.648438 90.230469 103.214844 90.59375 C 102.78125 90.953125 102.316406 91.269531 101.820312 91.539062 C 101.328125 91.808594 100.808594 92.03125 100.269531 92.199219 C 99.734375 92.367188 99.183594 92.484375 98.621094 92.546875 C 98.0625 92.605469 97.5 92.613281 96.9375 92.566406 C 96.375 92.515625 95.824219 92.414062 95.28125 92.257812 C 94.433594 92.554688 93.785156 93.097656 93.339844 93.878906 C 92.039062 96.191406 91.914062 99.867188 91.792969 103.417969 L 90.207031 149.707031 C 89.9375 157.625 89.628906 166.59375 85.9375 175.179688 C 84.363281 178.871094 82.214844 182.191406 79.492188 185.136719 C 81.21875 186.921875 82.695312 188.894531 83.914062 191.058594 C 88.046875 198.359375 88.832031 206.351562 89.058594 213.207031 C 89.34375 221.886719 88.808594 230.503906 88.289062 238.839844 C 87.671875 248.714844 87.09375 258.042969 87.78125 267.332031 C 88.121094 271.898438 88.875 277.644531 91.722656 281.578125 C 93.550781 284.105469 94.660156 284.996094 99.945312 285.09375 C 100.507812 285.105469 101.066406 285.171875 101.617188 285.289062 C 102.167969 285.410156 102.703125 285.582031 103.21875 285.804688 C 103.738281 286.03125 104.226562 286.304688 104.691406 286.625 C 105.15625 286.945312 105.585938 287.304688 105.976562 287.710938 C 106.371094 288.113281 106.722656 288.550781 107.027344 289.027344 C 107.335938 289.5 107.59375 289.996094 107.804688 290.519531 C 108.015625 291.042969 108.171875 291.582031 108.273438 292.136719 C 108.378906 292.691406 108.429688 293.25 108.425781 293.8125 C 108.417969 294.375 108.359375 294.933594 108.246094 295.488281 C 108.128906 296.039062 107.964844 296.574219 107.742188 297.09375 C 107.523438 297.613281 107.257812 298.105469 106.941406 298.574219 C 106.625 299.042969 106.265625 299.472656 105.867188 299.871094 C 105.464844 300.265625 105.03125 300.621094 104.5625 300.933594 C 104.089844 301.246094 103.597656 301.507812 103.074219 301.722656 C 102.554688 301.9375 102.015625 302.101562 101.460938 302.210938 C 100.910156 302.320312 100.351562 302.375 99.785156 302.375 Z M 99.785156 302.375 " fill-opacity="1" fill-rule="nonzero"/></g><path fill="#1284a3" d="M 272.597656 301.863281 C 272.457031 301.863281 272.316406 301.863281 272.179688 301.863281 C 271.613281 301.859375 271.054688 301.800781 270.5 301.6875 C 269.945312 301.570312 269.40625 301.40625 268.882812 301.1875 C 268.363281 300.964844 267.867188 300.699219 267.398438 300.382812 C 266.929688 300.0625 266.496094 299.703125 266.097656 299.300781 C 265.699219 298.898438 265.34375 298.460938 265.03125 297.992188 C 264.71875 297.519531 264.453125 297.019531 264.238281 296.496094 C 264.023438 295.972656 263.863281 295.433594 263.753906 294.878906 C 263.648438 294.320312 263.59375 293.761719 263.59375 293.195312 C 263.597656 292.628906 263.652344 292.066406 263.765625 291.511719 C 263.878906 290.957031 264.042969 290.417969 264.261719 289.898438 C 264.480469 289.375 264.746094 288.878906 265.0625 288.40625 C 265.375 287.9375 265.734375 287.503906 266.136719 287.101562 C 266.535156 286.703125 266.972656 286.347656 267.441406 286.03125 C 267.914062 285.71875 268.410156 285.453125 268.933594 285.238281 C 269.457031 285.019531 269.996094 284.855469 270.550781 284.746094 C 271.109375 284.636719 271.667969 284.582031 272.234375 284.582031 C 272.34375 284.582031 272.46875 284.582031 272.585938 284.582031 C 277.628906 284.582031 278.757812 283.703125 280.621094 281.265625 C 283.578125 277.398438 284.492188 271.671875 284.953125 267.113281 C 285.898438 257.84375 285.570312 248.503906 285.226562 238.617188 C 284.9375 230.269531 284.636719 221.644531 285.160156 212.972656 C 285.570312 206.128906 286.578125 198.160156 290.902344 190.96875 C 292.183594 188.835938 293.710938 186.902344 295.488281 185.160156 C 292.847656 182.144531 290.792969 178.773438 289.320312 175.042969 C 285.859375 166.359375 285.800781 157.386719 285.746094 149.46875 L 285.425781 103.15625 C 285.402344 99.601562 285.378906 95.925781 284.144531 93.585938 C 283.722656 92.800781 283.09375 92.246094 282.261719 91.929688 C 281.714844 92.070312 281.160156 92.160156 280.597656 92.195312 C 280.035156 92.226562 279.472656 92.207031 278.914062 92.132812 C 278.355469 92.054688 277.808594 91.925781 277.273438 91.746094 C 276.738281 91.5625 276.230469 91.328125 275.742188 91.046875 C 275.253906 90.761719 274.796875 90.4375 274.371094 90.0625 C 273.949219 89.691406 273.5625 89.28125 273.21875 88.835938 C 272.875 88.386719 272.578125 87.910156 272.328125 87.40625 C 272.078125 86.898438 271.878906 86.375 271.730469 85.828125 C 271.582031 85.285156 271.492188 84.730469 271.453125 84.167969 C 271.414062 83.605469 271.429688 83.042969 271.5 82.484375 C 271.570312 81.925781 271.695312 81.375 271.871094 80.839844 C 272.050781 80.304688 272.277344 79.792969 272.558594 79.300781 C 272.835938 78.8125 273.160156 78.351562 273.527344 77.925781 C 273.898438 77.496094 274.304688 77.109375 274.75 76.761719 C 275.191406 76.414062 275.667969 76.113281 276.171875 75.859375 C 276.671875 75.605469 277.195312 75.402344 277.738281 75.25 C 287.058594 72.640625 295.703125 78.449219 299.433594 85.53125 C 302.628906 91.601562 302.675781 98.210938 302.707031 103.039062 L 303.027344 149.347656 C 303.074219 156.054688 303.121094 162.988281 305.375 168.648438 C 307 172.738281 310.683594 177.113281 315.238281 177.679688 C 315.792969 177.75 316.335938 177.871094 316.867188 178.042969 C 317.394531 178.21875 317.90625 178.441406 318.390625 178.714844 C 318.878906 178.988281 319.335938 179.304688 319.761719 179.664062 C 320.1875 180.023438 320.574219 180.421875 320.921875 180.859375 C 321.269531 181.296875 321.574219 181.761719 321.832031 182.253906 C 322.089844 182.75 322.300781 183.265625 322.457031 183.800781 C 322.617188 184.335938 322.722656 184.878906 322.773438 185.4375 C 322.828125 185.992188 322.828125 186.546875 322.773438 187.101562 C 322.71875 187.65625 322.609375 188.203125 322.449219 188.738281 C 322.289062 189.273438 322.078125 189.785156 321.820312 190.28125 C 321.558594 190.773438 321.253906 191.238281 320.90625 191.671875 C 320.554688 192.109375 320.164062 192.503906 319.738281 192.863281 C 319.3125 193.222656 318.855469 193.539062 318.367188 193.808594 C 317.878906 194.082031 317.367188 194.300781 316.839844 194.472656 C 316.308594 194.644531 315.765625 194.765625 315.210938 194.832031 C 314.65625 194.898438 314.101562 194.914062 313.542969 194.871094 C 310.882812 194.671875 307.574219 196.78125 305.710938 199.875 C 303.3125 203.863281 302.695312 209.261719 302.410156 214.011719 C 301.9375 221.863281 302.210938 229.707031 302.5 238.015625 C 302.847656 248.046875 303.210938 258.421875 302.144531 268.863281 C 301.453125 275.683594 299.9375 284.449219 294.351562 291.761719 C 287.625 300.554688 279.9375 301.863281 272.597656 301.863281 Z M 272.597656 301.863281 " fill-opacity="1" fill-rule="nonzero"/><path fill="#6c5193" d="M 107.890625 108.617188 L 172.378906 108.617188 C 172.835938 108.617188 173.277344 108.703125 173.703125 108.878906 C 174.125 109.054688 174.5 109.304688 174.824219 109.628906 C 175.148438 109.953125 175.398438 110.328125 175.570312 110.75 C 175.746094 111.175781 175.835938 111.613281 175.835938 112.074219 L 175.835938 123.792969 C 175.835938 124.25 175.746094 124.691406 175.570312 125.117188 C 175.398438 125.539062 175.148438 125.914062 174.824219 126.238281 C 174.5 126.5625 174.125 126.8125 173.703125 126.988281 C 173.277344 127.160156 172.835938 127.25 172.378906 127.25 L 107.890625 127.25 C 107.433594 127.25 106.992188 127.160156 106.566406 126.988281 C 106.144531 126.8125 105.769531 126.5625 105.445312 126.238281 C 105.121094 125.914062 104.871094 125.539062 104.699219 125.117188 C 104.523438 124.691406 104.433594 124.25 104.433594 123.792969 L 104.433594 112.074219 C 104.433594 111.613281 104.523438 111.175781 104.699219 110.75 C 104.871094 110.328125 105.121094 109.953125 105.445312 109.628906 C 105.769531 109.304688 106.144531 109.054688 106.566406 108.878906 C 106.992188 108.703125 107.433594 108.617188 107.890625 108.617188 Z M 107.890625 108.617188 " fill-opacity="1" fill-rule="nonzero"/><path fill="#54cfcb" d="M 164.917969 143.675781 L 264.515625 143.675781 C 264.976562 143.675781 265.417969 143.761719 265.839844 143.9375 C 266.261719 144.113281 266.636719 144.363281 266.960938 144.6875 C 267.285156 145.011719 267.535156 145.382812 267.710938 145.808594 C 267.886719 146.230469 267.972656 146.671875 267.972656 147.128906 L 267.972656 158.851562 C 267.972656 159.308594 267.886719 159.75 267.710938 160.171875 C 267.535156 160.597656 267.285156 160.96875 266.960938 161.292969 C 266.636719 161.617188 266.261719 161.867188 265.839844 162.042969 C 265.417969 162.21875 264.976562 162.304688 264.515625 162.304688 L 164.917969 162.304688 C 164.457031 162.304688 164.019531 162.21875 163.59375 162.042969 C 163.171875 161.867188 162.796875 161.617188 162.472656 161.292969 C 162.148438 160.96875 161.898438 160.597656 161.722656 160.171875 C 161.546875 159.75 161.460938 159.308594 161.460938 158.851562 L 161.460938 147.128906 C 161.460938 146.671875 161.546875 146.230469 161.722656 145.808594 C 161.898438 145.382812 162.148438 145.011719 162.472656 144.6875 C 162.796875 144.363281 163.171875 144.113281 163.59375 143.9375 C 164.019531 143.761719 164.457031 143.675781 164.917969 143.675781 Z M 164.917969 143.675781 " fill-opacity="1" fill-rule="nonzero"/><path fill="#fe0e03" d="M 107.890625 143.675781 L 142.214844 143.675781 C 142.675781 143.675781 143.117188 143.761719 143.539062 143.9375 C 143.960938 144.113281 144.335938 144.363281 144.660156 144.6875 C 144.984375 145.011719 145.234375 145.382812 145.410156 145.808594 C 145.585938 146.230469 145.671875 146.671875 145.671875 147.128906 L 145.671875 158.851562 C 145.671875 159.308594 145.585938 159.75 145.410156 160.171875 C 145.234375 160.597656 144.984375 160.96875 144.660156 161.292969 C 144.335938 161.617188 143.960938 161.867188 143.539062 162.042969 C 143.117188 162.21875 142.675781 162.304688 142.214844 162.304688 L 107.890625 162.304688 C 107.433594 162.304688 106.992188 162.21875 106.566406 162.042969 C 106.144531 161.867188 105.769531 161.617188 105.445312 161.292969 C 105.121094 160.96875 104.871094 160.597656 104.699219 160.171875 C 104.523438 159.75 104.433594 159.308594 104.433594 158.851562 L 104.433594 147.128906 C 104.433594 146.671875 104.523438 146.230469 104.699219 145.808594 C 104.871094 145.382812 105.121094 145.011719 105.445312 144.6875 C 105.769531 144.363281 106.144531 144.113281 106.566406 143.9375 C 106.992188 143.761719 107.433594 143.675781 107.890625 143.675781 Z M 107.890625 143.675781 " fill-opacity="1" fill-rule="nonzero"/><path fill="#fe0e03" d="M 195.078125 108.617188 L 225.398438 108.617188 C 225.859375 108.617188 226.300781 108.703125 226.722656 108.878906 C 227.144531 109.054688 227.519531 109.304688 227.84375 109.628906 C 228.167969 109.953125 228.417969 110.328125 228.59375 110.75 C 228.769531 111.175781 228.855469 111.613281 228.855469 112.074219 L 228.855469 123.792969 C 228.855469 124.25 228.769531 124.691406 228.59375 125.117188 C 228.417969 125.539062 228.167969 125.914062 227.84375 126.238281 C 227.519531 126.5625 227.144531 126.8125 226.722656 126.988281 C 226.300781 127.160156 225.859375 127.25 225.398438 127.25 L 195.078125 127.25 C 194.621094 127.25 194.179688 127.160156 193.757812 126.988281 C 193.332031 126.8125 192.960938 126.5625 192.636719 126.238281 C 192.3125 125.914062 192.0625 125.539062 191.886719 125.117188 C 191.710938 124.691406 191.625 124.25 191.625 123.792969 L 191.625 112.074219 C 191.625 111.613281 191.710938 111.175781 191.886719 110.75 C 192.0625 110.328125 192.3125 109.953125 192.636719 109.628906 C 192.960938 109.304688 193.332031 109.054688 193.757812 108.878906 C 194.179688 108.703125 194.621094 108.617188 195.078125 108.617188 Z M 195.078125 108.617188 " fill-opacity="1" fill-rule="nonzero"/><path fill="#54cfcb" d="M 247.863281 108.617188 L 264.515625 108.617188 C 264.976562 108.617188 265.417969 108.703125 265.839844 108.878906 C 266.261719 109.054688 266.636719 109.304688 266.960938 109.628906 C 267.285156 109.953125 267.535156 110.328125 267.710938 110.75 C 267.886719 111.175781 267.972656 111.613281 267.972656 112.074219 L 267.972656 123.792969 C 267.972656 124.25 267.886719 124.691406 267.710938 125.117188 C 267.535156 125.539062 267.285156 125.914062 266.960938 126.238281 C 266.636719 126.5625 266.261719 126.8125 265.839844 126.988281 C 265.417969 127.160156 264.976562 127.25 264.515625 127.25 L 247.863281 127.25 C 247.40625 127.25 246.964844 127.160156 246.542969 126.988281 C 246.117188 126.8125 245.746094 126.5625 245.421875 126.238281 C 245.097656 125.914062 244.847656 125.539062 244.671875 125.117188 C 244.496094 124.691406 244.410156 124.25 244.410156 123.792969 L 244.410156 112.074219 C 244.410156 111.613281 244.496094 111.175781 244.671875 110.75 C 244.847656 110.328125 245.097656 109.953125 245.421875 109.628906 C 245.746094 109.304688 246.117188 109.054688 246.542969 108.878906 C 246.964844 108.703125 247.40625 108.617188 247.863281 108.617188 Z M 247.863281 108.617188 " fill-opacity="1" fill-rule="nonzero"/><path fill="#6c5193" d="M 107.890625 212.757812 L 172.378906 212.757812 C 172.835938 212.757812 173.277344 212.847656 173.703125 213.019531 C 174.125 213.195312 174.5 213.445312 174.824219 213.769531 C 175.148438 214.09375 175.398438 214.46875 175.570312 214.890625 C 175.746094 215.316406 175.835938 215.757812 175.835938 216.214844 L 175.835938 227.933594 C 175.835938 228.390625 175.746094 228.832031 175.570312 229.257812 C 175.398438 229.679688 175.148438 230.054688 174.824219 230.378906 C 174.5 230.703125 174.125 230.953125 173.703125 231.128906 C 173.277344 231.300781 172.835938 231.390625 172.378906 231.390625 L 107.890625 231.390625 C 107.433594 231.390625 106.992188 231.300781 106.566406 231.128906 C 106.144531 230.953125 105.769531 230.703125 105.445312 230.378906 C 105.121094 230.054688 104.871094 229.679688 104.699219 229.257812 C 104.523438 228.832031 104.433594 228.390625 104.433594 227.933594 L 104.433594 216.214844 C 104.433594 215.757812 104.523438 215.316406 104.699219 214.890625 C 104.871094 214.46875 105.121094 214.09375 105.445312 213.769531 C 105.769531 213.445312 106.144531 213.195312 106.566406 213.019531 C 106.992188 212.847656 107.433594 212.757812 107.890625 212.757812 Z M 107.890625 212.757812 " fill-opacity="1" fill-rule="nonzero"/><path fill="#54cfcb" d="M 164.917969 247.816406 L 264.515625 247.816406 C 264.976562 247.816406 265.417969 247.902344 265.839844 248.078125 C 266.261719 248.253906 266.636719 248.503906 266.960938 248.828125 C 267.285156 249.152344 267.535156 249.523438 267.710938 249.949219 C 267.886719 250.371094 267.972656 250.8125 267.972656 251.269531 L 267.972656 262.992188 C 267.972656 263.449219 267.886719 263.890625 267.710938 264.3125 C 267.535156 264.738281 267.285156 265.109375 266.960938 265.433594 C 266.636719 265.757812 266.261719 266.007812 265.839844 266.183594 C 265.417969 266.359375 264.976562 266.445312 264.515625 266.445312 L 164.917969 266.445312 C 164.457031 266.445312 164.019531 266.359375 163.59375 266.183594 C 163.171875 266.007812 162.796875 265.757812 162.472656 265.433594 C 162.148438 265.109375 161.898438 264.738281 161.722656 264.3125 C 161.546875 263.890625 161.460938 263.449219 161.460938 262.992188 L 161.460938 251.269531 C 161.460938 250.8125 161.546875 250.371094 161.722656 249.949219 C 161.898438 249.523438 162.148438 249.152344 162.472656 248.828125 C 162.796875 248.503906 163.171875 248.253906 163.59375 248.078125 C 164.019531 247.902344 164.457031 247.816406 164.917969 247.816406 Z M 164.917969 247.816406 " fill-opacity="1" fill-rule="nonzero"/><path fill="#fe0e03" d="M 107.890625 247.816406 L 142.214844 247.816406 C 142.675781 247.816406 143.117188 247.902344 143.539062 248.078125 C 143.960938 248.253906 144.335938 248.503906 144.660156 248.828125 C 144.984375 249.152344 145.234375 249.523438 145.410156 249.949219 C 145.585938 250.371094 145.671875 250.8125 145.671875 251.269531 L 145.671875 262.992188 C 145.671875 263.449219 145.585938 263.890625 145.410156 264.3125 C 145.234375 264.738281 144.984375 265.109375 144.660156 265.433594 C 144.335938 265.757812 143.960938 266.007812 143.539062 266.183594 C 143.117188 266.359375 142.675781 266.445312 142.214844 266.445312 L 107.890625 266.445312 C 107.433594 266.445312 106.992188 266.359375 106.566406 266.183594 C 106.144531 266.007812 105.769531 265.757812 105.445312 265.433594 C 105.121094 265.109375 104.871094 264.738281 104.699219 264.3125 C 104.523438 263.890625 104.433594 263.449219 104.433594 262.992188 L 104.433594 251.269531 C 104.433594 250.8125 104.523438 250.371094 104.699219 249.949219 C 104.871094 249.523438 105.121094 249.152344 105.445312 248.828125 C 105.769531 248.503906 106.144531 248.253906 106.566406 248.078125 C 106.992188 247.902344 107.433594 247.816406 107.890625 247.816406 Z M 107.890625 247.816406 " fill-opacity="1" fill-rule="nonzero"/><path fill="#6c5193" d="M 195.078125 212.757812 L 225.398438 212.757812 C 225.859375 212.757812 226.300781 212.847656 226.722656 213.019531 C 227.144531 213.195312 227.519531 213.445312 227.84375 213.769531 C 228.167969 214.09375 228.417969 214.46875 228.59375 214.890625 C 228.769531 215.316406 228.855469 215.757812 228.855469 216.214844 L 228.855469 227.933594 C 228.855469 228.390625 228.769531 228.832031 228.59375 229.257812 C 228.417969 229.679688 228.167969 230.054688 227.84375 230.378906 C 227.519531 230.703125 227.144531 230.953125 226.722656 231.128906 C 226.300781 231.300781 225.859375 231.390625 225.398438 231.390625 L 195.078125 231.390625 C 194.621094 231.390625 194.179688 231.300781 193.757812 231.128906 C 193.332031 230.953125 192.960938 230.703125 192.636719 230.378906 C 192.3125 230.054688 192.0625 229.679688 191.886719 229.257812 C 191.710938 228.832031 191.625 228.390625 191.625 227.933594 L 191.625 216.214844 C 191.625 215.757812 191.710938 215.316406 191.886719 214.890625 C 192.0625 214.46875 192.3125 214.09375 192.636719 213.769531 C 192.960938 213.445312 193.332031 213.195312 193.757812 213.019531 C 194.179688 212.847656 194.621094 212.757812 195.078125 212.757812 Z M 195.078125 212.757812 " fill-opacity="1" fill-rule="nonzero"/><path fill="#fe0e03" d="M 247.863281 212.757812 L 264.515625 212.757812 C 264.976562 212.757812 265.417969 212.847656 265.839844 213.019531 C 266.261719 213.195312 266.636719 213.445312 266.960938 213.769531 C 267.285156 214.09375 267.535156 214.46875 267.710938 214.890625 C 267.886719 215.316406 267.972656 215.757812 267.972656 216.214844 L 267.972656 227.933594 C 267.972656 228.390625 267.886719 228.832031 267.710938 229.257812 C 267.535156 229.679688 267.285156 230.054688 266.960938 230.378906 C 266.636719 230.703125 266.261719 230.953125 265.839844 231.128906 C 265.417969 231.300781 264.976562 231.390625 264.515625 231.390625 L 247.863281 231.390625 C 247.40625 231.390625 246.964844 231.300781 246.542969 231.128906 C 246.117188 230.953125 245.746094 230.703125 245.421875 230.378906 C 245.097656 230.054688 244.847656 229.679688 244.671875 229.257812 C 244.496094 228.832031 244.410156 228.390625 244.410156 227.933594 L 244.410156 216.214844 C 244.410156 215.757812 244.496094 215.316406 244.671875 214.890625 C 244.847656 214.46875 245.097656 214.09375 245.421875 213.769531 C 245.746094 213.445312 246.117188 213.195312 246.542969 213.019531 C 246.964844 212.847656 247.40625 212.757812 247.863281 212.757812 Z M 247.863281 212.757812 " fill-opacity="1" fill-rule="nonzero"/><path fill="#54cfcb" d="M 107.890625 178.875 L 150.109375 178.875 C 150.570312 178.875 151.011719 178.964844 151.433594 179.140625 C 151.855469 179.3125 152.230469 179.5625 152.554688 179.886719 C 152.878906 180.210938 153.128906 180.585938 153.304688 181.007812 C 153.480469 181.433594 153.566406 181.875 153.566406 182.332031 L 153.566406 194.050781 C 153.566406 194.511719 153.480469 194.949219 153.304688 195.375 C 153.128906 195.796875 152.878906 196.171875 152.554688 196.496094 C 152.230469 196.820312 151.855469 197.070312 151.433594 197.246094 C 151.011719 197.421875 150.570312 197.507812 150.109375 197.507812 L 107.890625 197.507812 C 107.433594 197.507812 106.992188 197.421875 106.566406 197.246094 C 106.144531 197.070312 105.769531 196.820312 105.445312 196.496094 C 105.121094 196.171875 104.871094 195.796875 104.699219 195.375 C 104.523438 194.949219 104.433594 194.511719 104.433594 194.050781 L 104.433594 182.332031 C 104.433594 181.875 104.523438 181.433594 104.699219 181.007812 C 104.871094 180.585938 105.121094 180.210938 105.445312 179.886719 C 105.769531 179.5625 106.144531 179.3125 106.566406 179.140625 C 106.992188 178.964844 107.433594 178.875 107.890625 178.875 Z M 107.890625 178.875 " fill-opacity="1" fill-rule="nonzero"/><path fill="#fe0e03" d="M 220.648438 178.875 L 262.867188 178.875 C 263.328125 178.875 263.765625 178.964844 264.191406 179.140625 C 264.613281 179.3125 264.988281 179.5625 265.3125 179.886719 C 265.636719 180.210938 265.886719 180.585938 266.0625 181.007812 C 266.238281 181.433594 266.324219 181.875 266.324219 182.332031 L 266.324219 194.050781 C 266.324219 194.511719 266.238281 194.949219 266.0625 195.375 C 265.886719 195.796875 265.636719 196.171875 265.3125 196.496094 C 264.988281 196.820312 264.613281 197.070312 264.191406 197.246094 C 263.765625 197.421875 263.328125 197.507812 262.867188 197.507812 L 220.648438 197.507812 C 220.1875 197.507812 219.75 197.421875 219.324219 197.246094 C 218.902344 197.070312 218.527344 196.820312 218.203125 196.496094 C 217.878906 196.171875 217.628906 195.796875 217.453125 195.375 C 217.277344 194.949219 217.191406 194.511719 217.191406 194.050781 L 217.191406 182.332031 C 217.191406 181.875 217.277344 181.433594 217.453125 181.007812 C 217.628906 180.585938 217.878906 180.210938 218.203125 179.886719 C 218.527344 179.5625 218.902344 179.3125 219.324219 179.140625 C 219.75 178.964844 220.1875 178.875 220.648438 178.875 Z M 220.648438 178.875 " fill-opacity="1" fill-rule="nonzero"/><path fill="#6c5193" d="M 172.8125 178.875 L 197.945312 178.875 C 198.40625 178.875 198.847656 178.964844 199.269531 179.140625 C 199.691406 179.3125 200.066406 179.5625 200.390625 179.886719 C 200.714844 180.210938 200.964844 180.585938 201.140625 181.007812 C 201.316406 181.433594 201.402344 181.875 201.402344 182.332031 L 201.402344 194.050781 C 201.402344 194.511719 201.316406 194.949219 201.140625 195.375 C 200.964844 195.796875 200.714844 196.171875 200.390625 196.496094 C 200.066406 196.820312 199.691406 197.070312 199.269531 197.246094 C 198.847656 197.421875 198.40625 197.507812 197.945312 197.507812 L 172.8125 197.507812 C 172.351562 197.507812 171.910156 197.421875 171.488281 197.246094 C 171.066406 197.070312 170.691406 196.820312 170.367188 196.496094 C 170.042969 196.171875 169.792969 195.796875 169.617188 195.375 C 169.441406 194.949219 169.355469 194.511719 169.355469 194.050781 L 169.355469 182.332031 C 169.355469 181.875 169.441406 181.433594 169.617188 181.007812 C 169.792969 180.585938 170.042969 180.210938 170.367188 179.886719 C 170.691406 179.5625 171.066406 179.3125 171.488281 179.140625 C 171.910156 178.964844 172.351562 178.875 172.8125 178.875 Z M 172.8125 178.875 " fill-opacity="1" fill-rule="nonzero"/></svg>